<svg width="18" height="18" viewBox="0 0 18 18" fill="none" xmlns="http://www.w3.org/2000/svg">
<path d="M18 16.2345L13.3089 11.5807C14.1912 10.377 14.7128 8.8965 14.7128 7.2975C14.7128 3.27375 11.4128 0 7.35604 0C3.30001 0 0 3.27375 0 7.2975C0 11.322 3.30001 14.595 7.35604 14.595C8.89378 14.595 10.3219 14.1247 11.5043 13.3215L16.2203 18L18 16.2345ZM2.15767 7.2975C2.15767 4.4535 4.48998 2.13975 7.3568 2.13975C10.2236 2.13975 12.5559 4.4535 12.5559 7.2975C12.5559 10.1415 10.2236 12.4552 7.3568 12.4552C4.48923 12.4552 2.15767 10.1415 2.15767 7.2975Z" fill="#404040"/>
</svg>
