<svg width="24" height="24" viewBox="0 0 24 24" fill="none" xmlns="http://www.w3.org/2000/svg">
<path d="M20.327 13.099L19.9 12.672L20.61 11.962L21.034 12.389L20.327 13.099ZM19.91 17.566L19.202 16.857L18.774 17.284L19.481 17.993L19.91 17.566ZM24 6V22H0V6H10.888L8 2.625L8.781 2L12 5.75L15.219 2L16 2.625L13.112 6H24ZM2.951 18.993C3.625 19.664 6.313 20 9.001 20C11.688 20 14.376 19.664 15.05 18.993C15.683 18.361 16 16.142 16 13.934C16 11.753 15.69 9.583 15.07 8.964C14.433 8.329 11.671 8 8.929 8C6.248 8 3.583 8.314 2.932 8.964C2.329 9.565 2.019 11.632 2.001 13.75C1.983 16.018 2.3 18.344 2.951 18.993ZM18 13.093C18 14.114 18.796 14.944 19.802 14.997C20.899 15.056 21.811 14.183 21.811 13.093C21.811 12.044 20.961 11.187 19.904 11.187C18.856 11.187 18 12.034 18 13.093ZM22 10V9.445H18V10H22ZM18 17.988C18 19.05 18.86 19.895 19.903 19.895C20.961 19.895 21.81 19.037 21.81 17.988C21.81 16.939 20.96 16.082 19.903 16.082C18.856 16.082 18 16.928 18 17.988ZM22 8H18V8.555H22V8Z" fill="#404040"/>
</svg>
