<svg width="71" height="71" viewBox="0 0 71 71" fill="none" xmlns="http://www.w3.org/2000/svg">
<g clip-path="url(#clip0)">
<g filter="url(#filter0_d)">
<path d="M70.435 63.0361L52.0785 44.6796C55.5309 39.9315 57.5721 34.0917 57.5721 27.7846C57.5721 11.9131 44.659 -1 28.7846 -1C12.9131 -1 0 11.9131 0 27.7846C0 43.659 12.9131 56.5692 28.7846 56.5692C34.8018 56.5692 40.3901 54.7143 45.017 51.5459L63.471 70L70.435 63.0361ZM8.44308 27.7846C8.44308 16.5666 17.5695 7.44012 28.7875 7.44012C40.0055 7.44012 49.132 16.5666 49.132 27.7846C49.132 39.0026 40.0055 48.129 28.7875 48.129C17.5666 48.129 8.44308 39.0026 8.44308 27.7846Z" fill="white"/>
</g>
</g>
<defs>
<filter id="filter0_d" x="-4" y="-1" width="78.435" height="79" filterUnits="userSpaceOnUse" color-interpolation-filters="sRGB">
<feFlood flood-opacity="0" result="BackgroundImageFix"/>
<feColorMatrix in="SourceAlpha" type="matrix" values="0 0 0 0 0 0 0 0 0 0 0 0 0 0 0 0 0 0 127 0"/>
<feOffset dy="4"/>
<feGaussianBlur stdDeviation="2"/>
<feColorMatrix type="matrix" values="0 0 0 0 0 0 0 0 0 0 0 0 0 0 0 0 0 0 0.25 0"/>
<feBlend mode="normal" in2="BackgroundImageFix" result="effect1_dropShadow"/>
<feBlend mode="normal" in="SourceGraphic" in2="effect1_dropShadow" result="shape"/>
</filter>
<clipPath id="clip0">
<rect width="71" height="71" fill="white"/>
</clipPath>
</defs>
</svg>
