<svg width="1020" height="301" viewBox="0 0 1020 301" fill="none" xmlns="http://www.w3.org/2000/svg">
<path d="M26.0001 279V116.417M196.483 116.417V279" stroke="#2DB25A" stroke-width="43" stroke-linecap="round" stroke-linejoin="round"/>
<g filter="url(#filter0_d)">
<path d="M280.626 52.3774L78.8649 196.197C78.5406 196.428 78.2531 196.759 77.8606 196.826C77.5321 196.883 77.1836 196.752 76.9601 196.445L26 116.418" stroke="#2DB25A" stroke-width="43" stroke-linecap="round" stroke-linejoin="round"/>
</g>
<circle cx="296" cy="232" r="53" stroke="#2DB25A" stroke-width="30"/>
<path d="M373 178L414.568 283.057C415.562 285.571 419.114 285.59 420.135 283.086L463 178" stroke="#2DB25A" stroke-width="31" stroke-linecap="round"/>
<path d="M503 178L503 285" stroke="#2DB25A" stroke-width="31" stroke-linecap="round"/>
<path d="M554.022 225.94H641.024C645.472 209.818 636.105 165.639 583.834 174.056C527.973 183.05 536.034 257.872 561.932 274.299C594.004 294.641 627.427 281.877 641.024 269.765" stroke="#2DB25A" stroke-width="30" stroke-linecap="round"/>
<path d="M688.087 294.766C687.591 295.842 686.681 296.628 685.357 297.124C684.116 297.703 682.338 297.993 680.022 297.993C677.705 297.993 675.844 297.455 674.438 296.38C673.114 295.304 672.287 294.187 671.956 293.029C671.708 291.788 671.584 290.341 671.584 288.686C671.584 287.032 671.667 285.75 671.832 284.84C671.997 283.847 672.37 282.813 672.949 281.738C673.941 279.587 676.423 278.511 680.394 278.511C684.53 278.511 687.094 279.587 688.087 281.738C688.997 283.475 689.452 285.377 689.452 287.445C689.452 289.431 689.369 290.878 689.204 291.788C689.038 292.698 688.666 293.691 688.087 294.766ZM723.374 297H706.746V226.023H714.564L721.14 237.067C726.848 228.96 734.914 224.7 745.337 224.286V238.556C735.576 238.804 728.255 241.782 723.374 247.49V297ZM769.934 279.752C772.085 283.888 776.221 285.956 782.342 285.956C788.464 285.956 792.6 283.888 794.751 279.752C796.902 275.616 797.977 269.536 797.977 261.512C797.977 253.487 796.902 247.407 794.751 243.271C792.6 239.135 788.464 237.067 782.342 237.067C776.221 237.067 772.085 239.135 769.934 243.271C767.783 247.407 766.708 253.487 766.708 261.512C766.708 269.536 767.783 275.616 769.934 279.752ZM814.605 261.512C814.605 286.329 803.85 298.737 782.342 298.737C760.834 298.737 750.08 286.329 750.08 261.512C750.08 236.695 760.834 224.286 782.342 224.286C803.85 224.286 814.605 236.695 814.605 261.512ZM843.243 243.023C841.175 246.994 840.141 253.157 840.141 261.512C840.141 269.867 841.175 276.03 843.243 280C845.394 283.971 849.075 285.956 854.287 285.956C859.581 285.956 863.345 284.881 865.578 282.73C867.895 280.579 869.135 277.188 869.301 272.555L882.33 273.176C881.833 281.613 879.352 287.983 874.885 292.285C870.5 296.586 863.262 298.737 853.17 298.737C841.34 298.737 833.275 294.891 828.973 287.197C826.905 283.475 825.457 279.587 824.63 275.533C823.886 271.48 823.513 266.806 823.513 261.512C823.513 256.135 823.886 251.419 824.63 247.366C825.457 243.23 826.905 239.342 828.973 235.702C833.192 228.091 841.258 224.286 853.17 224.286C863.179 224.286 870.376 226.354 874.761 230.49C879.145 234.544 881.627 240.624 882.206 248.731L869.301 250.468C869.135 245.836 867.895 242.444 865.578 240.293C863.345 238.142 859.581 237.067 854.287 237.067C849.075 237.067 845.394 239.052 843.243 243.023ZM913.864 297H897.236V203.688L913.864 202.447V253.074H918.951L937.688 226.023H955.681L931.856 259.774L957.914 297H939.922L917.338 264.242H913.864V297ZM1019.36 277.146C1019.36 291.292 1009.43 298.365 989.58 298.365C980.894 298.365 974.442 296.504 970.223 292.781C966.004 288.976 963.357 283.475 962.281 276.278L975.186 274.292C976.096 282.234 981.018 286.205 989.952 286.205C998.969 286.205 1003.48 283.392 1003.48 277.767C1003.48 275.451 1002.57 273.713 1000.75 272.555C999.011 271.397 995.453 270.198 990.076 268.957L984.368 267.592C977.006 265.855 971.712 263.332 968.486 260.023C965.342 256.631 963.77 251.75 963.77 245.381C963.77 231.318 973.366 224.286 992.558 224.286C1000.83 224.286 1006.99 226.189 1011.05 229.994C1015.18 233.717 1017.75 239.176 1018.74 246.373L1005.84 248.235C1004.93 240.376 1000.33 236.446 992.062 236.446C983.872 236.446 979.777 239.259 979.777 244.884C979.777 247.201 980.563 248.979 982.135 250.22C983.789 251.378 987.098 252.536 992.062 253.694L998.514 255.307C1005.88 257.127 1011.17 259.692 1014.4 263.001C1017.71 266.227 1019.36 270.942 1019.36 277.146Z" fill="#7ED09A"/>
<defs>
<filter id="filter0_d" x="0.497314" y="28.8757" width="305.631" height="195.465" filterUnits="userSpaceOnUse" color-interpolation-filters="sRGB">
<feFlood flood-opacity="0" result="BackgroundImageFix"/>
<feColorMatrix in="SourceAlpha" type="matrix" values="0 0 0 0 0 0 0 0 0 0 0 0 0 0 0 0 0 0 127 0"/>
<feOffset dy="2"/>
<feGaussianBlur stdDeviation="2"/>
<feColorMatrix type="matrix" values="0 0 0 0 0 0 0 0 0 0 0 0 0 0 0 0 0 0 0.25 0"/>
<feBlend mode="normal" in2="BackgroundImageFix" result="effect1_dropShadow"/>
<feBlend mode="normal" in="SourceGraphic" in2="effect1_dropShadow" result="shape"/>
</filter>
</defs>
</svg>
