<svg width="721" height="301" viewBox="0 0 721 301" fill="none" xmlns="http://www.w3.org/2000/svg">
<path d="M26 279V116.417M196.483 116.417V279" stroke="#48FF87" stroke-width="43" stroke-linecap="round" stroke-linejoin="round"/>
<g filter="url(#filter0_d)">
<path d="M280.626 52.3774L78.8649 196.197C78.5406 196.428 78.2531 196.759 77.8606 196.826C77.532 196.883 77.1835 196.752 76.9601 196.445L26 116.418" stroke="#0AF95B" stroke-width="43" stroke-linecap="round" stroke-linejoin="round"/>
</g>
<circle cx="296" cy="232" r="53" stroke="#48FF87" stroke-width="30"/>
<path d="M373 178L414.568 283.057C415.562 285.571 419.114 285.59 420.135 283.086L463 178" stroke="#48FF87" stroke-width="31" stroke-linecap="round"/>
<path d="M503 178L503 285" stroke="#48FF87" stroke-width="31" stroke-linecap="round"/>
<path d="M554.022 225.94H641.024C645.472 209.818 636.105 165.639 583.834 174.056C527.973 183.05 536.034 257.872 561.932 274.299C594.004 294.641 627.427 281.877 641.024 269.765" stroke="#48FF87" stroke-width="30" stroke-linecap="round"/>
<defs>
<filter id="filter0_d" x="0.497253" y="28.8757" width="305.631" height="195.465" filterUnits="userSpaceOnUse" color-interpolation-filters="sRGB">
<feFlood flood-opacity="0" result="BackgroundImageFix"/>
<feColorMatrix in="SourceAlpha" type="matrix" values="0 0 0 0 0 0 0 0 0 0 0 0 0 0 0 0 0 0 127 0"/>
<feOffset dy="2"/>
<feGaussianBlur stdDeviation="2"/>
<feColorMatrix type="matrix" values="0 0 0 0 0 0 0 0 0 0 0 0 0 0 0 0 0 0 0.25 0"/>
<feBlend mode="normal" in2="BackgroundImageFix" result="effect1_dropShadow"/>
<feBlend mode="normal" in="SourceGraphic" in2="effect1_dropShadow" result="shape"/>
</filter>
</defs>
</svg>
