<svg width="183" height="54" viewBox="0 0 183 54" fill="none" xmlns="http://www.w3.org/2000/svg">
<path d="M5 49.7784V20.7709M35.4171 20.7709V49.7784" stroke="#0AF95B" stroke-width="7.67194" stroke-linecap="round" stroke-linejoin="round"/>
<g filter="url(#filter0_d)">
<path d="M50.4297 9.34502L14.432 35.0049C14.3742 35.0462 14.3229 35.1052 14.2528 35.1172C14.1942 35.1272 14.132 35.1039 14.0922 35.0491L5 20.7709" stroke="#0AF95B" stroke-width="7.67194" stroke-linecap="round" stroke-linejoin="round"/>
</g>
<circle cx="53.1727" cy="41.3928" r="9.45611" stroke="#0AF95B" stroke-width="5.35252"/>
<path d="M66.9108 31.7583L74.3271 50.5022C74.5046 50.9508 75.1383 50.9541 75.3204 50.5075L82.9683 31.7583" stroke="#0AF95B" stroke-width="5.53094" stroke-linecap="round"/>
<path d="M90.105 31.7583L90.105 50.8489" stroke="#0AF95B" stroke-width="5.53094" stroke-linecap="round"/>
<path d="M99.2083 40.3116H114.731C115.524 37.4351 113.853 29.5529 104.527 31.0546C94.5606 32.6593 95.9989 46.0089 100.619 48.9396C106.342 52.5691 112.305 50.2918 114.731 48.1307" stroke="#0AF95B" stroke-width="5.35252" stroke-linecap="round"/>
<path d="M123.128 52.4677C123.039 52.6596 122.877 52.7998 122.641 52.8883C122.419 52.9916 122.102 53.0433 121.689 53.0433C121.275 53.0433 120.943 52.9474 120.692 52.7555C120.456 52.5636 120.309 52.3644 120.25 52.1577C120.205 51.9364 120.183 51.6781 120.183 51.3829C120.183 51.0877 120.198 50.8589 120.228 50.6966C120.257 50.5195 120.323 50.335 120.427 50.1431C120.604 49.7594 121.047 49.5675 121.755 49.5675C122.493 49.5675 122.951 49.7594 123.128 50.1431C123.29 50.453 123.371 50.7925 123.371 51.1615C123.371 51.5157 123.357 51.774 123.327 51.9364C123.297 52.0987 123.231 52.2758 123.128 52.4677ZM129.423 52.8662H126.457V40.2027H127.852L129.025 42.1731C130.043 40.7267 131.482 39.9666 133.342 39.8928V42.4388C131.6 42.483 130.294 43.0144 129.423 44.0328V52.8662ZM137.731 49.7889C138.114 50.5268 138.852 50.8958 139.945 50.8958C141.037 50.8958 141.775 50.5268 142.158 49.7889C142.542 49.0509 142.734 47.9661 142.734 46.5345C142.734 45.1028 142.542 44.018 142.158 43.28C141.775 42.5421 141.037 42.1731 139.945 42.1731C138.852 42.1731 138.114 42.5421 137.731 43.28C137.347 44.018 137.155 45.1028 137.155 46.5345C137.155 47.9661 137.347 49.0509 137.731 49.7889ZM145.701 46.5345C145.701 50.9622 143.782 53.1761 139.945 53.1761C136.107 53.1761 134.188 50.9622 134.188 46.5345C134.188 42.1067 136.107 39.8928 139.945 39.8928C143.782 39.8928 145.701 42.1067 145.701 46.5345ZM150.81 43.2358C150.441 43.9442 150.257 45.0438 150.257 46.5345C150.257 48.0251 150.441 49.1247 150.81 49.8332C151.194 50.5416 151.851 50.8958 152.781 50.8958C153.725 50.8958 154.397 50.704 154.795 50.3202C155.208 49.9365 155.43 49.3313 155.459 48.5048L157.784 48.6155C157.695 50.121 157.253 51.2574 156.456 52.0249C155.673 52.7924 154.382 53.1761 152.581 53.1761C150.471 53.1761 149.032 52.4898 148.264 51.1172C147.895 50.453 147.637 49.7594 147.489 49.0362C147.357 48.3129 147.29 47.479 147.29 46.5345C147.29 45.5751 147.357 44.7338 147.489 44.0106C147.637 43.2727 147.895 42.579 148.264 41.9296C149.017 40.5717 150.456 39.8928 152.581 39.8928C154.367 39.8928 155.651 40.2618 156.434 40.9997C157.216 41.7229 157.659 42.8077 157.762 44.2541L155.459 44.5641C155.43 43.7376 155.208 43.1324 154.795 42.7487C154.397 42.365 153.725 42.1731 152.781 42.1731C151.851 42.1731 151.194 42.5273 150.81 43.2358ZM163.41 52.8662H160.444V36.2177L163.41 35.9963V45.029H164.318L167.661 40.2027H170.871L166.62 46.2245L171.27 52.8662H168.059L164.03 47.0215H163.41V52.8662ZM182.233 49.324C182.233 51.8478 180.462 53.1097 176.919 53.1097C175.37 53.1097 174.218 52.7776 173.466 52.1135C172.713 51.4345 172.241 50.453 172.049 49.169L174.351 48.8148C174.514 50.2317 175.392 50.9401 176.986 50.9401C178.594 50.9401 179.399 50.4383 179.399 49.4347C179.399 49.0214 179.236 48.7114 178.912 48.5048C178.602 48.2982 177.967 48.0842 177.008 47.8628L175.989 47.6193C174.676 47.3093 173.731 46.8592 173.156 46.2688C172.595 45.6637 172.314 44.7929 172.314 43.6564C172.314 41.1473 174.026 39.8928 177.451 39.8928C178.927 39.8928 180.026 40.2322 180.749 40.9112C181.487 41.5753 181.945 42.5494 182.122 43.8335L179.819 44.1656C179.657 42.7635 178.838 42.0624 177.362 42.0624C175.901 42.0624 175.17 42.5642 175.17 43.5678C175.17 43.9811 175.311 44.2984 175.591 44.5198C175.886 44.7264 176.476 44.9331 177.362 45.1397L178.513 45.4275C179.827 45.7522 180.771 46.2098 181.347 46.8001C181.937 47.3757 182.233 48.217 182.233 49.324Z" fill="#53FF8E"/>
<defs>
<filter id="filter0_d" x="0.449905" y="5.15192" width="54.5298" height="34.8743" filterUnits="userSpaceOnUse" color-interpolation-filters="sRGB">
<feFlood flood-opacity="0" result="BackgroundImageFix"/>
<feColorMatrix in="SourceAlpha" type="matrix" values="0 0 0 0 0 0 0 0 0 0 0 0 0 0 0 0 0 0 127 0"/>
<feOffset dy="0.356835"/>
<feGaussianBlur stdDeviation="0.356835"/>
<feColorMatrix type="matrix" values="0 0 0 0 0 0 0 0 0 0 0 0 0 0 0 0 0 0 0.25 0"/>
<feBlend mode="normal" in2="BackgroundImageFix" result="effect1_dropShadow"/>
<feBlend mode="normal" in="SourceGraphic" in2="effect1_dropShadow" result="shape"/>
</filter>
</defs>
</svg>
