<svg width="52" height="56" viewBox="0 0 52 56" fill="none" xmlns="http://www.w3.org/2000/svg">
<g filter="url(#filter0_d)">
<circle cx="26" cy="22" r="22" fill="#0AF95B"/>
</g>
<path d="M28.4345 12.4127C27.6555 11.632 26.3879 11.6329 25.6055 12.4101C24.8199 13.1903 24.8141 14.4641 25.597 15.247L30.354 20.004H15.996C14.8936 20.004 14 20.8976 14 22C14 23.1024 14.8936 23.996 15.996 23.996H30.354L25.597 28.753C24.8141 29.5359 24.8199 30.8097 25.6055 31.5899C26.3879 32.3671 27.6555 32.368 28.4345 31.5873L36.5906 23.4126C37.3695 22.6319 37.3695 21.3681 36.5906 20.5874L28.4345 12.4127Z" fill="white"/>
<defs>
<filter id="filter0_d" x="0" y="0" width="52" height="56" filterUnits="userSpaceOnUse" color-interpolation-filters="sRGB">
<feFlood flood-opacity="0" result="BackgroundImageFix"/>
<feColorMatrix in="SourceAlpha" type="matrix" values="0 0 0 0 0 0 0 0 0 0 0 0 0 0 0 0 0 0 127 0"/>
<feOffset dy="8"/>
<feGaussianBlur stdDeviation="2"/>
<feColorMatrix type="matrix" values="0 0 0 0 0 0 0 0 0 0 0 0 0 0 0 0 0 0 0.25 0"/>
<feBlend mode="normal" in2="BackgroundImageFix" result="effect1_dropShadow"/>
<feBlend mode="normal" in="SourceGraphic" in2="effect1_dropShadow" result="shape"/>
</filter>
</defs>
</svg>
