<svg width="35" height="35" viewBox="0 0 35 35" fill="none" xmlns="http://www.w3.org/2000/svg">
<path d="M29.6435 19.1027L29.0208 18.48L30.0563 17.4446L30.6746 18.0673L29.6435 19.1027ZM29.0354 25.6171L28.0029 24.5831L27.3788 25.2058L28.4098 26.2398L29.0354 25.6171ZM35 8.74999V32.0833H0V8.74999H15.8783L11.6667 3.82811L12.8056 2.91666L17.5 8.38541L22.1944 2.91666L23.3333 3.82811L19.1217 8.74999H35ZM4.30354 27.6981C5.28646 28.6767 9.20646 29.1667 13.1265 29.1667C17.045 29.1667 20.965 28.6767 21.9479 27.6981C22.871 26.7764 23.3333 23.5404 23.3333 20.3204C23.3333 17.1398 22.8813 13.9752 21.9771 13.0725C21.0481 12.1464 17.0202 11.6667 13.0215 11.6667C9.11167 11.6667 5.22521 12.1246 4.27583 13.0725C3.39646 13.9489 2.94438 16.9633 2.91812 20.0521C2.89188 23.3596 3.35417 26.7517 4.30354 27.6981ZM26.25 19.0939C26.25 20.5829 27.4108 21.7933 28.8779 21.8706C30.4777 21.9567 31.8077 20.6835 31.8077 19.0939C31.8077 17.5642 30.5681 16.3144 29.0267 16.3144C27.4983 16.3144 26.25 17.5496 26.25 19.0939ZM32.0833 14.5833V13.7739H26.25V14.5833H32.0833ZM26.25 26.2325C26.25 27.7812 27.5042 29.0135 29.0252 29.0135C30.5681 29.0135 31.8062 27.7623 31.8062 26.2325C31.8062 24.7027 30.5667 23.4529 29.0252 23.4529C27.4983 23.4529 26.25 24.6867 26.25 26.2325ZM32.0833 11.6667H26.25V12.476H32.0833V11.6667Z" fill="black"/>
</svg>
