<svg width="43" height="43" viewBox="0 0 43 43" fill="none" xmlns="http://www.w3.org/2000/svg">
<path d="M43 38.7824L31.7935 27.6651C33.9012 24.7895 35.1474 21.2527 35.1474 17.4329C35.1474 7.82062 27.264 0 17.5728 0C7.88337 0 0 7.82062 0 17.4329C0 27.047 7.88337 34.8658 17.5728 34.8658C21.2463 34.8658 24.6579 33.7425 27.4825 31.8236L38.7486 43L43 38.7824ZM5.15444 17.4329C5.15444 10.6389 10.7261 5.11162 17.5746 5.11162C24.4231 5.11162 29.9947 10.6389 29.9947 17.4329C29.9947 24.2269 24.4231 29.7542 17.5746 29.7542C10.7243 29.7542 5.15444 24.2269 5.15444 17.4329Z" fill="#404040"/>
</svg>
